<svg viewBox="0 0 100 100" xmlns="http://www.w3.org/2000/svg" id="Learning-1--Streamline-Ux.svg" height="100" width="100"><desc>Learning 1 Streamline Illustration: https://streamlinehq.com</desc><path d="M2.2224 51.2224C2.2056 88.0016 42.0097 111.0068 73.8699 92.6318C88.6697 84.0961 97.7854 68.3073 97.7776 51.2224C97.7944 14.4432 57.9903 -8.562 26.1301 9.813C11.3303 18.3487 2.2146 34.1375 2.2224 51.2224Z" fill="#d9edff" stroke-width="1"></path><path d="M15.3696 81.1778C15.3696 83.0222 46.6809 84.175 71.7298 83.2528C83.3551 82.8248 90.5166 82.0338 90.5166 81.1778C90.5166 79.3333 59.2053 78.1805 34.1564 79.1027C22.5311 79.5307 15.3696 80.3217 15.3696 81.1778Z" fill="#b0d9ff" stroke-width="1"></path><path d="M49.8638 67.7917H17.3751C12.272 67.7919 9.0826 62.2678 11.6339 57.8482C12.8181 55.797 15.0066 54.5334 17.3751 54.5334H49.8638Z" fill="#ffffff" stroke-width="1"></path><path d="M49.8638 67.7917H17.3751C12.272 67.7919 9.0826 62.2678 11.6339 57.8482C12.8181 55.797 15.0066 54.5334 17.3751 54.5334H49.8638Z" fill="none" stroke="#003098" stroke-linecap="round" stroke-linejoin="round" stroke-width="1"></path><path d="M26.7168 67.7929H22.3619C17.2587 67.7926 14.0692 62.2682 16.621 57.8489C17.8052 55.798 19.9936 54.5346 22.3619 54.5346H26.7168C21.6137 54.5346 18.4242 60.0589 20.9758 64.4783C22.1599 66.5293 24.3485 67.7928 26.7168 67.7929Z" fill="#b0d9ff" stroke="#003098" stroke-linecap="round" stroke-linejoin="round" stroke-width="1"></path><path d="M41.9722 57.2639C39.1383 57.2639 37.3672 60.3316 38.7841 62.7858C39.4417 63.9248 40.6569 64.6265 41.9722 64.6264H74.4609C75.5946 64.6264 76.3032 65.8537 75.7364 66.8355C75.4733 67.2912 74.9871 67.5719 74.4609 67.5719H41.9722C36.8691 67.5717 33.6796 62.0473 36.2313 57.6279C37.4155 55.577 39.6039 54.3136 41.9722 54.3136H74.4609C75.5946 54.3136 76.3032 55.5409 75.7364 56.5227C75.4733 56.9784 74.9871 57.2591 74.4609 57.2591Z" fill="#ffffff" stroke-width="1"></path><path d="M41.9722 57.2639C39.1383 57.2639 37.3672 60.3316 38.7841 62.7858C39.4417 63.9248 40.6569 64.6265 41.9722 64.6264H74.4609C75.5946 64.6264 76.3032 65.8537 75.7364 66.8355C75.4733 67.2912 74.9871 67.5719 74.4609 67.5719H41.9722C36.8691 67.5717 33.6796 62.0473 36.2313 57.6279C37.4155 55.577 39.6039 54.3136 41.9722 54.3136H74.4609C75.5946 54.3136 76.3032 55.5409 75.7364 56.5227C75.4733 56.9784 74.9871 57.2591 74.4609 57.2591Z" fill="none" stroke="#003098" stroke-linecap="round" stroke-linejoin="round" stroke-width="1"></path><path d="M74.4633 64.6312V57.2639H41.9746C39.1407 57.2639 37.3696 60.3316 38.7865 62.7858C39.4441 63.9248 40.6593 64.6265 41.9746 64.6264Z" fill="#b0d9ff" stroke="#003098" stroke-linecap="round" stroke-linejoin="round" stroke-width="1"></path><path d="M60.0333 80.8589H27.5445C22.4414 80.8591 19.252 75.3349 21.8034 70.9154C22.9875 68.8642 25.1761 67.6006 27.5445 67.6006H60.0333Z" fill="#b0d9ff" stroke-width="1"></path><path d="M60.0333 80.8589H27.5445C22.4414 80.8591 19.252 75.3349 21.8034 70.9154C22.9875 68.8642 25.1761 67.6006 27.5445 67.6006H60.0333Z" fill="none" stroke="#003098" stroke-linecap="round" stroke-linejoin="round" stroke-width="1"></path><path d="M36.8803 80.8589H32.5242C27.421 80.8586 24.2315 75.3342 26.7833 70.9149C27.9675 68.864 30.1559 67.6006 32.5242 67.6006H36.8803C31.7772 67.6006 28.5877 73.1249 31.1393 77.5443C32.3234 79.5953 34.512 80.8588 36.8803 80.8589Z" fill="#ffffff" stroke="#003098" stroke-linecap="round" stroke-linejoin="round" stroke-width="1"></path><path d="M50.6832 70.5174C47.8494 70.5174 46.0782 73.5851 47.4952 76.0393C48.1528 77.1783 49.368 77.88 50.6832 77.8799H83.172C84.3057 77.8799 85.0143 79.1072 84.4474 80.089C84.1843 80.5447 83.6981 80.8254 83.172 80.8254H50.6832C45.5801 80.8252 42.3906 75.3008 44.9424 70.8814C46.1266 68.8305 48.315 67.5671 50.6832 67.5671H83.172C84.3057 67.5671 85.0143 68.7944 84.4474 69.7762C84.1843 70.2319 83.6981 70.5126 83.172 70.5126Z" fill="#b0d9ff" stroke-width="1"></path><path d="M50.6832 70.5174C47.8494 70.5174 46.0782 73.5851 47.4952 76.0393C48.1528 77.1783 49.368 77.88 50.6832 77.8799H83.172C84.3057 77.8799 85.0143 79.1072 84.4474 80.089C84.1843 80.5447 83.6981 80.8254 83.172 80.8254H50.6832C45.5801 80.8252 42.3906 75.3008 44.9424 70.8814C46.1266 68.8305 48.315 67.5671 50.6832 67.5671H83.172C84.3057 67.5671 85.0143 68.7944 84.4474 69.7762C84.1843 70.2319 83.6981 70.5126 83.172 70.5126Z" fill="none" stroke="#003098" stroke-linecap="round" stroke-linejoin="round" stroke-width="1"></path><path d="M83.1744 77.8799V70.5174H50.6856C47.8518 70.5174 46.0806 73.5851 47.4975 76.0393C48.1552 77.1783 49.3704 77.88 50.6856 77.8799Z" fill="#ffffff" stroke="#003098" stroke-linecap="round" stroke-linejoin="round" stroke-width="1"></path><path d="M54.1363 54.3184H21.6476C16.5445 54.3184 13.355 48.7941 15.9066 44.3747C17.0908 42.3236 19.2792 41.0601 21.6476 41.0601H54.1363Z" fill="#b0d9ff" stroke-width="1"></path><path d="M54.1363 54.3184H21.6476C16.5445 54.3184 13.355 48.7941 15.9066 44.3747C17.0908 42.3236 19.2792 41.0601 21.6476 41.0601H54.1363Z" fill="none" stroke="#003098" stroke-linecap="round" stroke-linejoin="round" stroke-width="1"></path><path d="M45.1972 44.0104C42.3633 44.0104 40.5922 47.0781 42.0091 49.5323C42.6667 50.6712 43.882 51.3729 45.1972 51.3729H77.6859C78.8196 51.3729 79.5282 52.6002 78.9613 53.582C78.6983 54.0377 78.212 54.3184 77.6859 54.3184H45.1972C40.094 54.3184 36.9046 48.7941 39.4562 44.3747C40.6403 42.3236 42.8288 41.0601 45.1972 41.0601H77.6859C78.8196 41.0602 79.5282 42.2875 78.9613 43.2693C78.6982 43.7249 78.212 44.0056 77.6859 44.0056Z" fill="#b0d9ff" stroke-width="1"></path><path d="M45.1972 44.0104C42.3633 44.0104 40.5922 47.0781 42.0091 49.5323C42.6667 50.6712 43.882 51.3729 45.1972 51.3729H77.6859C78.8196 51.3729 79.5282 52.6002 78.9613 53.582C78.6983 54.0377 78.212 54.3184 77.6859 54.3184H45.1972C40.094 54.3184 36.9046 48.7941 39.4562 44.3747C40.6403 42.3236 42.8288 41.0601 45.1972 41.0601H77.6859C78.8196 41.0602 79.5282 42.2875 78.9613 43.2693C78.6982 43.7249 78.212 44.0056 77.6859 44.0056Z" fill="none" stroke="#003098" stroke-linecap="round" stroke-linejoin="round" stroke-width="1"></path><path d="M77.6883 51.3729V44.0104H45.1995C42.3657 44.0104 40.5946 47.0781 42.0115 49.5323C42.6691 50.6713 43.8844 51.3729 45.1995 51.3729Z" fill="#ffffff" stroke="#003098" stroke-linecap="round" stroke-linejoin="round" stroke-width="1"></path><path d="M30.9905 54.3184H26.6344C21.5313 54.3184 18.3418 48.7941 20.8934 44.3747C22.0776 42.3236 24.266 41.0601 26.6344 41.0601H30.9905C25.8874 41.0601 22.6979 46.5844 25.2495 51.0038C26.4337 53.0549 28.6221 54.3184 30.9905 54.3184Z" fill="#ffffff" stroke="#003098" stroke-linecap="round" stroke-linejoin="round" stroke-width="1"></path><path d="M56.7486 39.8776C54.0855 41.2725 50.9143 41.3028 48.2251 39.9589C45.5363 41.3027 42.3654 41.2725 39.7027 39.8776C35.2594 37.5497 33.6541 33.8672 32.5444 26.101C32.0141 22.3827 34.7231 18.6859 37.8167 16.5562C40.9102 14.4274 44.9425 14.2345 48.225 16.0581C51.5081 14.2345 55.5407 14.4275 58.6346 16.5562C61.7282 18.6859 64.4372 22.3827 63.9056 26.101C62.8091 33.7776 61.2205 37.5341 56.7486 39.8776Z" fill="#ffffff" stroke-width="1"></path><path d="M48.4162 11.4571L49.5521 11.696C54.57 12.7704 59.5091 9.5745 60.5851 4.5569L60.824 3.421C60.9592 2.795 60.5613 2.1779 59.9353 2.0426L58.7994 1.8037C53.7819 0.7279 48.8425 3.9239 47.7676 8.9417L47.5287 10.0776C47.3948 10.7032 47.7913 11.3196 48.4162 11.4572Z" fill="#b0d9ff" stroke-width="1"></path><path d="M48.4162 11.4571L49.5521 11.696C54.57 12.7704 59.5091 9.5745 60.5851 4.5569L60.824 3.421C60.9592 2.795 60.5613 2.1779 59.9353 2.0426L58.7994 1.8037C53.7819 0.7279 48.8425 3.9239 47.7676 8.9417L47.5287 10.0776C47.3948 10.7032 47.7913 11.3196 48.4162 11.4572Z" fill="none" stroke="#003098" stroke-linecap="round" stroke-linejoin="round" stroke-width="1"></path><path d="M45.9067 2.3543L48.2251 16.2648" fill="none" stroke="#003098" stroke-linecap="round" stroke-linejoin="round" stroke-width="1"></path><path d="M56.7486 39.8776C54.0855 41.2725 50.9143 41.3028 48.2251 39.9589C45.5363 41.3027 42.3654 41.2725 39.7027 39.8776C35.2594 37.5497 33.6541 33.8672 32.5444 26.101C32.0141 22.3827 34.7231 18.6859 37.8167 16.5562C40.9102 14.4274 44.9425 14.2345 48.225 16.0581C51.5081 14.2345 55.5407 14.4275 58.6346 16.5562C61.7282 18.6859 64.4372 22.3827 63.9056 26.101C62.8091 33.7776 61.2205 37.5341 56.7486 39.8776Z" fill="none" stroke="#003098" stroke-linecap="round" stroke-linejoin="round" stroke-width="1"></path></svg>