<svg viewBox="0 0 100 100" xmlns="http://www.w3.org/2000/svg" id="Target-List--Streamline-Ux.svg" height="100" width="100"><desc>Target List Streamline Illustration: https://streamlinehq.com</desc><path d="M1 50C1 86.3255 40.3235 109.0289 71.7822 90.8661C86.3823 82.4368 95.3763 66.8587 95.3763 50C95.3763 13.6745 56.0528 -9.0289 24.5941 9.1339C9.994 17.5632 1 33.1413 1 50Z" fill="#d9edff" stroke-width="1"></path><path d="M35.6762 81.7281C35.6762 83.3837 55.9907 84.4184 72.2423 83.5906C79.7847 83.2064 84.431 82.4965 84.431 81.7281C84.431 80.0726 64.1165 79.0379 47.8649 79.8657C40.3225 80.2498 35.6762 80.9598 35.6762 81.7281Z" fill="#b0d9ff" stroke-width="1"></path><path d="M10.5364 18.0974L52.7787 11.5738L61.0041 64.836L18.7618 71.3596Z" fill="#b0d9ff" stroke-width="1"></path><path d="M10.5364 18.0974L52.7787 11.5738L61.0041 64.836L18.7618 71.3596Z" fill="none" stroke="#003098" stroke-linecap="round" stroke-linejoin="round" stroke-width="1"></path><path d="M16.8973 22.7564L48.1196 17.9347L54.6432 60.177L23.4209 64.9987Z" fill="#ffffff" stroke-width="1"></path><path d="M16.8973 22.7564L48.1196 17.9347L54.6432 60.177L23.4209 64.9987Z" fill="none" stroke="#003098" stroke-linecap="round" stroke-linejoin="round" stroke-width="1"></path><path d="M29.0746 32.1876L29.5111 35.0213L23.1348 36.0063L22.1497 29.6289L25.6924 29.0815" fill="none" stroke="#003098" stroke-linecap="round" stroke-linejoin="round" stroke-width="1"></path><path d="M32.1796 28.8054L44.9334 26.8365" fill="none" stroke="#003098" stroke-linecap="round" stroke-linejoin="round" stroke-width="1"></path><path d="M32.7258 32.3481L41.2291 31.0351" fill="none" stroke="#003098" stroke-linecap="round" stroke-linejoin="round" stroke-width="1"></path><path d="M34.04 40.8514L46.7937 38.8813" fill="none" stroke="#003098" stroke-linecap="round" stroke-linejoin="round" stroke-width="1"></path><path d="M34.5862 44.394L43.0895 43.081" fill="none" stroke="#003098" stroke-linecap="round" stroke-linejoin="round" stroke-width="1"></path><path d="M35.7906 52.1883L48.5444 50.2182" fill="none" stroke="#003098" stroke-linecap="round" stroke-linejoin="round" stroke-width="1"></path><path d="M36.338 55.731L44.8402 54.418" fill="none" stroke="#003098" stroke-linecap="round" stroke-linejoin="round" stroke-width="1"></path><path d="M24.6035 31.4267L26.2398 32.6253L29.1265 27.8263" fill="none" stroke="#003098" stroke-linecap="round" stroke-linejoin="round" stroke-width="1"></path><path d="M30.8253 43.5246L31.2629 46.3583L24.8855 47.3433L23.9004 40.9658L27.4431 40.4196" fill="none" stroke="#003098" stroke-linecap="round" stroke-linejoin="round" stroke-width="1"></path><path d="M26.3542 42.7637L27.9904 43.9623L30.8772 39.1632" fill="none" stroke="#003098" stroke-linecap="round" stroke-linejoin="round" stroke-width="1"></path><path d="M32.576 54.8616L33.0136 57.6952L26.6361 58.6803L25.6511 52.3028L29.1937 51.7566" fill="none" stroke="#003098" stroke-linecap="round" stroke-linejoin="round" stroke-width="1"></path><path d="M28.1061 54.1006L29.7411 55.2992L32.6279 50.5002" fill="none" stroke="#003098" stroke-linecap="round" stroke-linejoin="round" stroke-width="1"></path><path d="M36.5339 15.9632L36.3911 15.0442C35.858 11.5079 31.6967 9.8748 28.9008 12.1046C27.5945 13.1464 26.9482 14.8094 27.2083 16.4598L27.3499 17.3788L21.8407 18.2294L22.6912 23.7398L42.8937 20.6254L42.0431 15.115Z" fill="#ffffff" stroke-width="1"></path><path d="M36.5339 15.9632L36.3911 15.0442C35.858 11.5079 31.6967 9.8748 28.9008 12.1046C27.5945 13.1464 26.9482 14.8094 27.2083 16.4598L27.3499 17.3788L21.8407 18.2294L22.6912 23.7398L42.8937 20.6254L42.0431 15.115Z" fill="none" stroke="#003098" stroke-linecap="round" stroke-linejoin="round" stroke-width="1"></path><path d="M37.4694 56.9933C37.4694 74.6547 56.5884 85.6931 71.8837 76.8624C78.9822 72.7641 83.3551 65.19 83.3551 56.9933C83.3551 39.3319 64.2361 28.2935 48.9408 37.1242C41.8422 41.2225 37.4694 48.7966 37.4694 56.9933Z" fill="#ffffff" stroke="#003098" stroke-linecap="round" stroke-linejoin="round" stroke-width="1"></path><path d="M60.4122 34.0504C42.7508 34.0504 31.7124 53.1695 40.5431 68.4647C49.3738 83.76 71.4506 83.76 80.2814 68.4647C82.295 64.977 83.3551 61.0206 83.3551 56.9933C83.3545 44.3227 73.0829 34.0512 60.4122 34.0504ZM60.4122 74.9177C46.614 74.9188 37.9892 59.9824 44.8874 48.0323C51.7856 36.0821 69.0333 36.0808 75.9334 48.0299C77.507 50.755 78.3355 53.8464 78.3355 56.9933C78.3355 66.8921 70.3111 74.9169 60.4122 74.9177Z" fill="#b0d9ff" stroke="#003098" stroke-linecap="round" stroke-linejoin="round" stroke-width="1"></path><path d="M60.4122 43.3701C49.9251 43.3691 43.3696 54.7212 48.6124 63.8038C53.8552 72.8865 66.9641 72.8876 72.2085 63.806C73.4046 61.7347 74.0343 59.3851 74.0343 56.9933C74.0343 49.4699 67.9357 43.3707 60.4122 43.3701ZM60.4122 65.3126C54.0035 65.3135 49.9971 58.3765 53.2006 52.8259C56.4042 47.2753 64.4151 47.2741 67.6203 52.8237C68.3515 54.0899 68.7364 55.5264 68.7362 56.9886C68.7388 61.5878 65.0114 65.3175 60.4122 65.3173Z" fill="#b0d9ff" stroke="#003098" stroke-linecap="round" stroke-linejoin="round" stroke-width="1"></path><path d="M56.1099 56.9933C56.1099 60.3053 59.6952 62.3752 62.5634 60.7193C63.8946 59.9507 64.7146 58.5304 64.7146 56.9933C64.7146 53.6813 61.1293 51.6113 58.2611 53.2673C56.9299 54.0359 56.1099 55.4562 56.1099 56.9933Z" fill="#b0d9ff" stroke="#003098" stroke-linecap="round" stroke-linejoin="round" stroke-width="1"></path><path d="M94.7074 25.2321L62.2302 57.7094C61.5302 58.4098 60.3949 58.4098 59.695 57.7094H59.695C58.994 57.0101 58.994 55.8746 59.695 55.1754L92.1746 22.6969C92.7416 22.1305 93.6603 22.1305 94.2273 22.6969L94.7098 23.1794C95.2768 23.7466 95.2758 24.6663 94.7074 25.2321Z" fill="#ffffff" stroke="#003098" stroke-linecap="round" stroke-linejoin="round" stroke-width="1"></path><path d="M83.059 31.8101V26.321C83.0588 25.9405 83.2099 25.5755 83.479 25.3064L89.5792 19.2097C89.9679 18.8189 90.634 18.9953 90.7782 19.5274C90.7891 19.5679 90.7965 19.6092 90.8002 19.6509L91.1683 23.7032Z" fill="#b0d9ff" stroke="#003098" stroke-linecap="round" stroke-linejoin="round" stroke-width="1"></path><path d="M85.5942 34.3453H91.0834C91.4639 34.3456 91.8289 34.1945 92.0979 33.9254L98.2005 27.8216C98.5906 27.4308 98.4113 26.7643 97.8779 26.6219C97.8386 26.6114 97.7986 26.6043 97.7581 26.6006L93.7082 26.2337Z" fill="#b0d9ff" stroke="#003098" stroke-linecap="round" stroke-linejoin="round" stroke-width="1"></path></svg>