<svg viewBox="0 0 100 100" xmlns="http://www.w3.org/2000/svg" id="Binoculars-Hands--Streamline-Ux.svg" height="100" width="100"><desc>Binoculars Hands Streamline Illustration: https://streamlinehq.com</desc><path d="M10 50a40 40 0 1 0 80 0 40 40 0 1 0 -80 0Z" fill="#d9edff" stroke-width="1"></path><path d="M82.272 72.937c-1.158 -3.813 -3.23 -6.619 -7.072 -7.835 -2.272 -0.718 -2.278 -0.7 -10.088 -3.032a2.234 2.234 0 0 1 1.279 -4.282l3.5 1.046a8.5 8.5 0 0 0 9.854 -5.066L90.858 68.3Z" fill="#ffffff" stroke-width="1"></path><path d="M82.272 72.937c-1.158 -3.813 -3.23 -6.619 -7.072 -7.835 -2.272 -0.718 -2.278 -0.7 -10.088 -3.032a2.234 2.234 0 0 1 1.279 -4.282l3.5 1.046a8.5 8.5 0 0 0 9.854 -5.066L90.858 68.3Z" fill="none" stroke="#003098" stroke-linecap="round" stroke-linejoin="round" stroke-width="1"></path><path d="M83.5 48.27a2.234 2.234 0 0 1 -4.075 0.478c-2.8 -4.831 -9.5 -6.442 -9.569 -6.456a2.235 2.235 0 0 1 0.971 -4.363c0.351 0.079 8.655 1.993 12.466 8.582a2.228 2.228 0 0 1 0.207 1.759Z" fill="#b0d9ff" stroke="#003098" stroke-width="1"></path><path d="M95.637 66.568 94.575 64.6a1.115 1.115 0 0 0 -1.513 -0.452l-11.307 6.1a1.117 1.117 0 0 0 -0.452 1.514l1.061 1.967" fill="#b0d9ff" stroke="#003098" stroke-linecap="round" stroke-linejoin="round" stroke-width="1"></path><path d="m93.062 64.142 -11.307 6.112a14.967 14.967 0 0 0 -1.53 -3.508 16.8 16.8 0 0 1 -2.313 -6.525 16.629 16.629 0 0 1 1.05 -8.48l0.268 -0.66c1.62 -4.256 -1.117 -8.714 -7.374 -12.167 -0.614 -0.346 -1.251 -0.681 -1.933 -0.994a2.236 2.236 0 0 1 -1.072 -2.972 2.265 2.265 0 0 1 2.972 -1.072C86.961 40.3 84.012 49.83 93.062 64.142Z" fill="#ffffff" stroke-width="1"></path><path d="m93.062 64.142 -11.307 6.112a14.967 14.967 0 0 0 -1.53 -3.508 16.8 16.8 0 0 1 -2.313 -6.525 16.629 16.629 0 0 1 1.05 -8.48l0.268 -0.66c1.62 -4.256 -1.117 -8.714 -7.374 -12.167 -0.614 -0.346 -1.251 -0.681 -1.933 -0.994a2.236 2.236 0 0 1 -1.072 -2.972 2.265 2.265 0 0 1 2.972 -1.072C86.961 40.3 84.012 49.83 93.062 64.142Z" fill="none" stroke="#003098" stroke-linecap="round" stroke-linejoin="round" stroke-width="1"></path><path d="M17.728 72.937c1.158 -3.813 3.23 -6.619 7.072 -7.835 2.272 -0.718 2.278 -0.7 10.088 -3.032a2.234 2.234 0 0 0 -1.279 -4.282l-3.5 1.046a8.5 8.5 0 0 1 -9.854 -5.066L9.142 68.3Z" fill="#ffffff" stroke-width="1"></path><path d="M17.728 72.937c1.158 -3.813 3.23 -6.619 7.072 -7.835 2.272 -0.718 2.278 -0.7 10.088 -3.032a2.234 2.234 0 0 0 -1.279 -4.282l-3.5 1.046a8.5 8.5 0 0 1 -9.854 -5.066L9.142 68.3Z" fill="none" stroke="#003098" stroke-linecap="round" stroke-linejoin="round" stroke-width="1"></path><path d="M16.5 48.27a2.234 2.234 0 0 0 4.075 0.478c2.795 -4.831 9.5 -6.442 9.569 -6.456a2.235 2.235 0 0 0 -0.971 -4.363c-0.351 0.079 -8.655 1.993 -12.466 8.582a2.228 2.228 0 0 0 -0.207 1.759Z" fill="#b0d9ff" stroke="#003098" stroke-width="1"></path><path d="M4.363 66.568 5.425 64.6a1.115 1.115 0 0 1 1.513 -0.452l11.307 6.1a1.117 1.117 0 0 1 0.452 1.514l-1.061 1.967" fill="#b0d9ff" stroke="#003098" stroke-linecap="round" stroke-linejoin="round" stroke-width="1"></path><path d="m6.938 64.142 11.307 6.112a14.967 14.967 0 0 1 1.53 -3.508 16.8 16.8 0 0 0 2.313 -6.525 16.629 16.629 0 0 0 -1.05 -8.48l-0.268 -0.66c-1.62 -4.256 1.117 -8.714 7.374 -12.167 0.614 -0.346 1.251 -0.681 1.933 -0.994a2.236 2.236 0 0 0 1.072 -2.972 2.265 2.265 0 0 0 -2.972 -1.072C13.039 40.3 15.988 49.83 6.938 64.142Z" fill="#ffffff" stroke-width="1"></path><path d="m6.938 64.142 11.307 6.112a14.967 14.967 0 0 1 1.53 -3.508 16.8 16.8 0 0 0 2.313 -6.525 16.629 16.629 0 0 0 -1.05 -8.48l-0.268 -0.66c-1.62 -4.256 1.117 -8.714 7.374 -12.167 0.614 -0.346 1.251 -0.681 1.933 -0.994a2.236 2.236 0 0 0 1.072 -2.972 2.265 2.265 0 0 0 -2.972 -1.072C13.039 40.3 15.988 49.83 6.938 64.142Z" fill="none" stroke="#003098" stroke-linecap="round" stroke-linejoin="round" stroke-width="1"></path><path d="m44.685 45.039 -4.74 -4.74 7.11 -5.531 3.16 3.16 -5.53 7.111z" fill="#b0d9ff" stroke="#003098" stroke-width="1"></path><path d="M34.174 36.49a4.468 4.468 0 0 1 5.262 0.583l6.888 6.344a4.469 4.469 0 0 1 -0.793 7.157l-10.217 5.9a4.469 4.469 0 0 1 -6.1 -1.636L24.74 47.1a4.469 4.469 0 0 1 1.636 -6.105Z" fill="#b0d9ff" stroke="#003098" stroke-width="1"></path><path d="M34.174 36.49a4.468 4.468 0 0 1 5.262 0.583l6.888 6.344a4.469 4.469 0 0 1 -0.793 7.157l-10.217 5.9a4.469 4.469 0 0 1 -6.1 -1.636L24.74 47.1a4.469 4.469 0 0 1 1.636 -6.105Z" fill="#ffffff" stroke-width="1"></path><path d="M34.174 36.49a4.468 4.468 0 0 1 5.262 0.583l6.888 6.344a4.469 4.469 0 0 1 -0.793 7.157l-10.217 5.9a4.469 4.469 0 0 1 -6.1 -1.636L24.74 47.1a4.469 4.469 0 0 1 1.636 -6.105Z" fill="none" stroke="#003098" stroke-width="1"></path><path d="M18.405 49.293a11.171 11.171 0 1 0 22.342 0 11.171 11.171 0 1 0 -22.342 0Z" fill="#b0d9ff" stroke="#003098" stroke-width="1"></path><path d="M21.755 49.293a7.821 7.821 0 1 0 15.642 0 7.821 7.821 0 1 0 -15.642 0Z" fill="#ffffff" stroke-width="1"></path><path d="M21.755 49.293a7.821 7.821 0 1 0 15.642 0 7.821 7.821 0 1 0 -15.642 0Z" fill="none" stroke="#003098" stroke-width="1"></path><path d="m55.315 45.039 4.74 -4.74 -7.11 -5.531 -3.16 3.16 5.53 7.111z" fill="#b0d9ff" stroke="#003098" stroke-width="1"></path><path d="M45.531 35.886a4.469 4.469 0 1 0 8.938 0 4.469 4.469 0 1 0 -8.938 0Z" fill="#ffffff" stroke-width="1"></path><path d="M65.826 36.49a4.468 4.468 0 0 0 -5.262 0.583l-6.888 6.344a4.469 4.469 0 0 0 0.793 7.157l10.217 5.9a4.469 4.469 0 0 0 6.1 -1.636L75.26 47.1a4.469 4.469 0 0 0 -1.636 -6.105Z" fill="#b0d9ff" stroke="#003098" stroke-width="1"></path><path d="M65.826 36.49a4.468 4.468 0 0 0 -5.262 0.583l-6.888 6.344a4.469 4.469 0 0 0 0.793 7.157l10.217 5.9a4.469 4.469 0 0 0 6.1 -1.636L75.26 47.1a4.469 4.469 0 0 0 -1.636 -6.105Z" fill="#ffffff" stroke-width="1"></path><path d="M65.826 36.49a4.468 4.468 0 0 0 -5.262 0.583l-6.888 6.344a4.469 4.469 0 0 0 0.793 7.157l10.217 5.9a4.469 4.469 0 0 0 6.1 -1.636L75.26 47.1a4.469 4.469 0 0 0 -1.636 -6.105Z" fill="none" stroke="#003098" stroke-width="1"></path><path d="M45.531 35.886a4.469 4.469 0 1 0 8.938 0 4.469 4.469 0 1 0 -8.938 0Z" fill="none" stroke="#003098" stroke-width="1"></path><path d="M59.253 49.293a11.171 11.171 0 1 0 22.342 0 11.171 11.171 0 1 0 -22.342 0Z" fill="#b0d9ff" stroke="#003098" stroke-width="1"></path><path d="M62.603 49.293a7.821 7.821 0 1 0 15.642 0 7.821 7.821 0 1 0 -15.642 0Z" fill="#ffffff" stroke-width="1"></path><path d="M62.603 49.293a7.821 7.821 0 1 0 15.642 0 7.821 7.821 0 1 0 -15.642 0Z" fill="none" stroke="#003098" stroke-width="1"></path></svg>